<svg width="1080" height="1080" viewBox="0 0 1080 1080" fill="none" xmlns="http://www.w3.org/2000/svg">
<rect width="1080" height="1080" fill="#FF0000"/>
<path d="M579.014 234C578.533 235.605 577.971 237.171 577.569 238.776C576.526 242.508 575.482 246.201 574.198 249.813C573.757 251.017 573.396 252.261 573.074 253.505C572.553 255.713 572.753 257.84 574.038 259.766C575.322 261.693 575.884 262.576 576.847 263.94C596.887 291.606 616.901 319.272 636.888 346.938C654.587 371.54 672.086 396.263 689.865 420.825C717.799 459.407 746.776 497.201 776.796 534.204C778.963 536.893 781.131 539.623 783.338 542.271C784.088 543.163 784.892 544.007 785.746 544.8C786.501 545.499 787.43 545.984 788.435 546.204C788.997 546.365 789.719 546.245 789.8 545.883C789.947 545.542 790.002 545.169 789.96 544.8C789.558 543.039 788.762 541.393 787.632 539.984C786.749 538.74 785.786 537.495 784.983 536.211C784.081 534.942 783.681 533.383 783.86 531.836C783.86 531.596 784.02 531.194 784.141 531.194C784.501 531.13 784.873 531.202 785.184 531.395C785.7 531.783 786.171 532.227 786.589 532.719C787.592 533.883 788.636 535.047 789.599 536.251C791.004 538.057 792.448 539.863 793.773 541.75C809.586 564.225 826.362 586.018 843.098 607.771C847.646 613.684 852.155 619.61 856.623 625.55C864.466 636.047 873.107 645.922 882.47 655.089C887.246 659.744 891.941 664.48 896.677 669.216C899.286 671.865 901.814 674.594 904.423 677.243C905.226 678.086 906.028 678.929 906.871 679.691C907.517 680.324 908.283 680.821 909.124 681.152C909.965 681.483 910.864 681.641 911.768 681.618H913.694C920.356 681.618 927.019 681.738 933.721 682.139C935.246 682.246 936.771 682.407 938.296 682.621C938.792 682.731 939.266 682.921 939.701 683.183C939.866 683.358 939.965 683.585 939.982 683.825C940 683.886 940.005 683.95 939.996 684.012C939.987 684.075 939.964 684.135 939.93 684.189C939.896 684.242 939.85 684.287 939.797 684.321C939.744 684.356 939.683 684.378 939.621 684.387C937.333 684.748 935.045 685.19 932.758 685.35C925.855 685.711 918.952 686.353 912.008 686.153C908.798 686.073 905.587 686.153 902.456 687.036C902.098 687.172 901.749 687.333 901.413 687.517C901.201 687.656 901.042 687.862 900.962 688.103C900.881 688.343 900.885 688.604 900.971 688.842C901.212 689.283 901.373 689.845 901.774 690.126C902.448 690.705 903.206 691.179 904.022 691.531C905.468 692.092 907.006 692.378 908.557 692.374L912.771 692.454C914.185 692.509 915.581 692.794 916.905 693.297C917.261 693.434 917.588 693.639 917.868 693.899C917.956 693.987 918.024 694.095 918.065 694.213C918.107 694.331 918.122 694.457 918.109 694.581C918.053 694.814 917.927 695.024 917.748 695.183C916.704 695.785 915.54 695.865 914.416 696.026C912.37 696.267 910.363 696.588 908.316 696.869L907.594 697.109C907.437 697.208 907.32 697.358 907.261 697.534C907.203 697.709 907.207 697.9 907.273 698.073L909.319 701.323C910.042 702.527 911.005 703.611 911.286 705.056C911.303 705.112 911.305 705.171 911.29 705.228C911.276 705.284 911.247 705.336 911.206 705.377C911.017 705.521 910.797 705.617 910.564 705.658C910.191 705.577 909.837 705.428 909.52 705.217C908.597 704.494 907.714 703.772 906.871 702.969C906.028 702.166 905.707 701.604 905.065 700.962C904.423 700.32 903.62 699.517 902.858 698.835C901.405 697.536 899.508 696.846 897.56 696.909C895.995 696.989 894.43 696.949 892.945 697.19C885.841 698.434 878.697 699.036 871.553 699.879C865.573 700.601 859.553 701.123 853.573 701.765C847.593 702.407 842.094 703.049 836.355 703.732L821.827 705.497L816.489 706.26C806.696 707.665 796.783 707.825 786.91 707.825C783.298 707.825 779.726 707.825 776.114 707.906C770.856 708.026 765.599 708.347 760.341 708.467C752.916 708.628 745.451 708.668 738.026 708.748L712.581 709.15L701.825 709.31L686.414 709.832C679.631 710.073 672.808 710.233 666.025 709.511C664.741 709.391 663.457 709.391 662.173 709.31C661.981 709.314 661.793 709.258 661.635 709.15C661.477 709.042 661.356 708.888 661.29 708.708C661.238 708.458 661.24 708.2 661.295 707.951C661.351 707.702 661.458 707.468 661.611 707.263C662.21 706.773 662.931 706.454 663.698 706.34C665.985 706.059 668.273 705.698 670.561 705.578C683.885 704.655 697.21 703.892 710.534 702.969C717.959 702.447 725.384 701.645 732.809 701.002C734.214 700.882 735.618 700.842 737.023 700.641C738.428 700.441 740.073 700.24 741.398 699.357C741.494 699.277 741.573 699.177 741.628 699.065C741.683 698.952 741.713 698.829 741.717 698.704C741.721 698.578 741.698 698.454 741.65 698.338C741.601 698.222 741.529 698.118 741.438 698.032C740.283 697 738.811 696.391 737.264 696.307C735.979 696.226 734.695 696.226 733.411 696.267C729.678 696.347 725.946 696.507 722.254 696.548L702.227 696.869C693.477 696.989 684.768 697.029 676.019 697.23C663.818 697.511 651.657 697.912 639.457 698.273L636.768 698.394C631.39 698.594 626.012 698.875 620.593 698.996C615.175 699.116 609.837 699.116 604.419 699.156L595.59 699.357C594.667 699.397 593.784 699.437 592.901 699.558C591.175 699.718 589.971 700.481 589.73 702.327C589.686 702.578 589.605 702.822 589.489 703.049C589.249 702.969 588.927 703.009 588.807 702.889C588.687 702.768 587.764 701.725 587.202 701.203C586.662 700.654 585.982 700.266 585.235 700.079C583.241 699.58 581.191 699.337 579.135 699.357L569.141 699.437C566.697 699.508 564.254 699.252 561.877 698.675C561.287 698.447 560.733 698.136 560.231 697.752C559.87 697.471 559.91 696.668 560.272 696.347C560.848 695.832 561.586 695.534 562.359 695.504C564.526 695.424 566.733 695.424 568.9 695.263C571.83 695.063 574.76 694.701 577.69 694.38C578.199 694.308 578.698 694.173 579.175 693.979C580.218 693.698 580.539 692.935 580.138 691.932C579.496 690.086 578.412 688.481 577.329 686.915C570.466 676.962 563.563 667.089 556.78 657.096C550.92 648.507 545.141 639.878 539.362 631.209C537.475 628.319 535.709 625.349 533.903 622.379C532.579 620.333 531.295 618.286 529.93 616.239C527.312 612.256 523.861 608.888 519.816 606.366L519.455 606.165C514.398 603.275 510.304 599.222 506.652 594.687C500.07 586.459 493.448 578.272 486.906 570.044C470.491 549.295 454.157 528.505 437.702 507.796C429.715 497.722 421.568 487.809 413.501 477.816C405.955 468.424 398.33 459.073 391.146 449.361C388.573 445.834 385.785 442.469 382.798 439.287C381.032 437.401 380.43 437.401 379.105 439.648C378.687 440.438 378.325 441.256 378.022 442.096C376.738 445.467 375.453 448.839 374.129 452.17L358.958 490.017C357.072 494.672 355.226 499.288 353.259 503.903C352.175 506.391 350.931 508.759 349.727 511.167C348.523 513.575 347.841 515.141 347.52 517.308C347.199 519.475 346.276 521.482 345.112 523.328C344.389 524.532 343.587 525.696 342.824 526.9C341.321 529.295 340.235 531.928 339.613 534.686C339.413 535.569 339.132 536.412 338.971 537.295C337.968 542.873 336.282 548.251 334.396 553.589C333.071 557.201 331.908 560.854 330.704 564.506C330.077 566.328 329.647 568.211 329.419 570.125C329.194 572.807 328.683 575.457 327.894 578.031C324.924 587.342 322.637 596.814 319.988 606.205C317.339 615.597 314.409 625.43 311.559 635.022C308.429 645.457 305.446 655.932 302.61 666.447C299.479 677.965 295.867 689.363 292.295 700.721C288.723 712.079 285.312 722.755 282.261 733.872C281.098 737.926 280.054 742.02 278.97 746.113C278.77 746.996 278.649 747.879 278.489 748.762C278.443 748.919 278.435 749.084 278.467 749.243C278.499 749.403 278.57 749.553 278.672 749.679C278.775 749.806 278.907 749.905 279.057 749.969C279.207 750.033 279.37 750.06 279.532 750.047L281.459 750.167C289.285 750.488 297.111 750.689 304.937 750.729C319.185 750.809 333.433 750.929 347.68 750.889C363.493 750.889 379.266 750.729 395.039 750.608C397.888 750.568 400.698 750.368 403.507 750.287L416.992 750.006L430.477 749.525L436.618 749.284C441.354 749.123 446.13 748.883 450.866 748.762C457.809 748.602 464.712 748.481 471.655 748.441H511.348C518.412 748.441 525.435 748.361 532.499 747.919C534.666 747.799 536.873 747.799 539.041 747.679C541.208 747.558 543.897 747.357 546.345 747.197L549.034 746.956C553.529 746.756 557.984 746.194 562.439 745.592L571.589 744.548L579.656 743.705C582.827 743.304 586.038 743.184 589.249 742.943C592.459 742.702 596.392 742.301 599.884 741.418C600.928 741.177 601.369 740.454 600.928 739.411C600.486 738.367 599.764 736.561 599.081 735.157C597.526 731.92 595.77 728.783 593.824 725.765C593.12 724.692 592.477 723.58 591.897 722.434C591.338 721.277 590.894 720.067 590.573 718.822C590.433 718.079 590.433 717.317 590.573 716.574C590.573 716.374 590.854 716.133 591.014 716.013C591.184 715.915 591.381 715.874 591.576 715.896C591.771 715.917 591.954 716.001 592.098 716.133C592.392 716.36 592.649 716.631 592.861 716.936L606.466 737.043C607.187 738.1 607.964 739.119 608.794 740.093C609.283 740.698 609.892 741.196 610.583 741.555C611.274 741.914 612.031 742.127 612.807 742.18C614.212 742.26 615.617 742.18 617.021 742.14C618.426 742.1 619.309 741.859 620.473 741.779C621.502 741.719 622.534 741.719 623.563 741.779C625.209 741.819 626.012 742.22 626.092 743.023C626.373 745.11 625.731 746.595 624.165 747.157C623.32 747.444 622.445 747.632 621.557 747.719C620.393 747.799 619.229 747.679 618.065 747.719L614.252 747.919C614.06 747.938 613.875 747.997 613.707 748.092C613.54 748.187 613.395 748.316 613.281 748.472C613.167 748.627 613.088 748.805 613.048 748.993C613.007 749.182 613.008 749.377 613.048 749.565C613.268 750.711 613.812 751.771 614.616 752.618C615.42 753.464 616.45 754.062 617.583 754.341C618.332 754.529 619.099 754.637 619.871 754.662C621.396 754.742 622.921 754.742 624.486 754.742H715.391C716.41 754.716 717.43 754.769 718.441 754.903C719.064 755.049 719.66 755.293 720.207 755.625C720.294 755.7 720.364 755.792 720.412 755.896C720.461 756 720.486 756.113 720.488 756.227C720.416 756.452 720.276 756.649 720.086 756.789C719.869 756.928 719.621 757.01 719.364 757.03C715.631 757.351 711.939 757.712 708.207 757.953C701.063 758.435 693.879 758.796 686.695 759.197L684.367 759.318C673.33 759.679 662.333 760.08 651.296 760.401C644.875 760.562 638.453 760.642 632.032 760.923C629.459 760.997 626.908 761.415 624.446 762.167C621.989 762.89 619.458 763.334 616.901 763.492C611.403 763.933 605.864 763.893 600.366 763.893C593.663 763.893 587.001 764.254 580.339 764.495C579.456 764.495 578.533 764.615 577.65 764.655L556.499 765.739L536.913 766.903L534.987 767.023C527.281 767.385 519.575 767.665 511.91 768.147C501.515 768.789 491.12 768.87 480.725 769.231C473.782 769.472 466.839 769.512 459.936 769.552L422.17 769.632C407.802 769.592 393.433 769.471 379.025 769.512C366.824 769.512 354.624 769.471 342.463 769.752C330.904 770.033 319.346 770.114 307.827 770.796C302.449 771.117 297.031 771.197 291.653 771.358L281.258 771.679H279.733C278.97 771.719 278.529 772.321 278.77 772.963C279.372 774.488 279.974 776.054 280.696 777.539C281.94 780.107 283.305 782.555 284.589 785.084C286.556 788.856 288.482 792.629 290.449 796.361C291.888 799.232 293.51 802.007 295.305 804.669C296.316 806.002 297.065 807.513 297.512 809.124C297.561 809.51 297.587 809.899 297.593 810.288C297.593 810.569 297.031 811.01 296.79 810.93L296.068 810.77C295.004 810.265 294.081 809.507 293.379 808.562C292.834 807.862 292.337 807.124 291.894 806.355C289.686 801.98 286.797 798.047 284.068 793.994C282.382 791.425 280.616 788.896 278.93 786.328C277.245 783.759 275.118 780.508 273.472 777.458C272.771 776.233 271.994 775.054 271.144 773.926C270.685 773.3 270.103 772.774 269.434 772.381C268.765 771.987 268.022 771.735 267.251 771.639C265.871 771.397 264.477 771.236 263.077 771.157C261.285 771.063 259.488 771.09 257.699 771.237C252.683 771.679 247.666 771.639 242.689 771.679C238.435 771.719 234.221 771.558 229.967 771.558C226.395 771.518 222.782 771.518 219.17 771.599C214.675 771.679 210.22 771.639 205.725 771.037C205.094 770.966 204.474 770.818 203.879 770.595C203.629 770.546 203.401 770.418 203.227 770.231C203.054 770.043 202.945 769.805 202.916 769.552C202.935 769.296 203.034 769.054 203.2 768.859C203.366 768.664 203.59 768.527 203.839 768.468C204.713 768.289 205.598 768.168 206.488 768.107L218.809 767.625L232.656 767.104C233.3 767.09 233.944 767.036 234.582 766.943C235.023 766.903 235.425 766.1 235.144 765.779C234.863 765.458 233.86 764.134 233.258 763.331C232.98 762.903 232.725 762.461 232.495 762.007C232.457 761.824 232.475 761.635 232.547 761.463C232.618 761.291 232.74 761.145 232.896 761.043C233.498 760.923 234.14 760.762 234.783 760.682L244.375 759.919C245.378 759.839 246.422 759.879 247.425 759.157C247.328 758.679 247.194 758.209 247.024 757.752C246.341 756.388 245.619 755.023 244.896 753.659C238.475 741.498 231.451 729.698 224.267 717.979C220.896 712.401 217.405 706.862 214.033 701.243C212.548 698.835 211.224 696.347 209.859 693.859C209.614 693.416 209.425 692.944 209.297 692.454C209.172 692.09 209.158 691.696 209.258 691.324C209.358 690.952 209.568 690.619 209.859 690.367C210.011 690.265 210.181 690.195 210.361 690.161C210.54 690.126 210.724 690.128 210.903 690.166C211.244 690.327 211.535 690.576 211.746 690.889C212.909 692.454 213.993 694.019 215.117 695.584L216.441 697.511C217.621 699.348 219.288 700.822 221.257 701.765C223.906 702.969 225.953 704.855 227.759 707.063L237.03 718.421C238.332 720.014 239.424 721.768 240.281 723.638C240.373 723.893 240.522 724.123 240.717 724.311C240.912 724.499 241.147 724.639 241.405 724.722C241.721 724.351 242.016 723.963 242.288 723.558C243.224 721.717 243.913 719.76 244.335 717.738C244.762 715.981 244.593 714.131 243.853 712.481C243.371 711.437 242.85 710.394 242.288 709.39C239.679 704.534 237.03 699.678 234.462 694.822L204.883 639.436C204.16 638.112 203.398 636.747 202.595 635.463C202.115 634.704 201.564 633.992 200.949 633.336C199.986 632.212 198.782 632.052 197.498 632.854C196.642 633.415 195.824 634.031 195.05 634.701C194.381 635.316 193.751 635.973 193.163 636.667C186.622 643.53 180.12 650.473 173.457 657.256C164.307 666.607 154.996 675.798 145.765 685.109C144.601 686.273 143.517 687.557 142.353 688.762C142.152 689.01 141.894 689.205 141.6 689.331C141.306 689.457 140.986 689.509 140.668 689.484C140.434 689.403 140.216 689.281 140.026 689.123C140.003 689.064 139.995 689 140.002 688.937C140.009 688.875 140.031 688.814 140.066 688.762C140.324 688.178 140.647 687.626 141.029 687.116C143.798 683.584 146.527 680.012 149.377 676.521C154.634 670.059 159.972 663.637 165.27 657.176C169.484 651.998 173.618 646.741 177.752 641.523C182.448 635.584 187.143 629.644 192.28 624.025C193.024 623.317 193.623 622.472 194.046 621.537C194.206 621.187 194.267 620.801 194.225 620.42C194.182 620.038 194.038 619.675 193.806 619.369C193.091 618.321 192.194 617.41 191.157 616.68C190.113 616.761 189.431 617.363 188.829 618.005C188.227 618.647 186.943 620.132 185.979 621.175C185.481 621.763 184.805 622.172 184.053 622.339C183.931 622.358 183.807 622.349 183.69 622.314C183.572 622.28 183.463 622.22 183.371 622.139C183.288 622.056 183.226 621.954 183.191 621.842C183.156 621.73 183.149 621.612 183.17 621.496C183.451 620.292 184.254 619.45 185.096 618.687C185.939 617.924 186.902 617.202 187.745 616.399C189.19 615.035 189.551 613.349 188.668 611.503C188.213 610.446 187.677 609.426 187.063 608.453C184.896 605.122 183.13 601.55 181.404 597.978L179.718 594.486C177.912 590.834 176.066 587.142 173.658 583.77C172.92 582.717 172.326 581.569 171.892 580.359C171.645 579.637 171.576 578.866 171.692 578.111C171.732 577.75 172.093 577.228 172.374 577.268C172.61 577.275 172.842 577.329 173.056 577.429C174.325 578.313 175.37 579.481 176.106 580.84C177.391 582.927 178.595 585.055 179.799 587.182L188.508 603.035C188.989 603.958 189.471 604.841 190.033 605.724C190.552 606.451 191.129 607.136 191.759 607.771C191.985 608.044 192.266 608.268 192.583 608.427C192.9 608.587 193.247 608.679 193.601 608.698C193.956 608.717 194.31 608.662 194.642 608.537C194.975 608.412 195.277 608.219 195.531 607.971C196.407 607.203 197.225 606.371 197.98 605.483C199.464 603.717 200.949 601.951 202.354 600.105C206.261 595.155 210.381 590.406 214.716 585.857C226.555 573.536 237.873 560.773 249.271 548.051C269.78 525.054 290.93 502.619 312.001 480.184C330.382 460.598 348.603 440.932 366.503 420.945C368.149 419.099 369.875 417.414 371.52 415.608C373.166 413.802 373.928 412.919 375.052 411.514C375.674 410.707 376.225 409.848 376.697 408.945C377.047 408.322 377.237 407.623 377.251 406.909C377.265 406.194 377.103 405.488 376.778 404.852C376.456 404.162 376.094 403.492 375.694 402.845C374.483 401.131 373.624 399.194 373.166 397.146L371.721 396.704C371.468 396.646 371.242 396.505 371.079 396.303C370.356 394.658 369.232 393.253 368.269 391.728C367.951 391.169 367.695 390.577 367.507 389.962C367.306 389.52 366.985 389.36 366.263 389.44L365.5 389.56C365.41 389.546 365.323 389.514 365.246 389.465C365.168 389.416 365.102 389.353 365.049 389.278C364.997 389.203 364.96 389.119 364.941 389.029C364.922 388.94 364.921 388.848 364.938 388.758C364.932 388.636 364.945 388.514 364.978 388.397C365.219 387.554 366.142 386.831 365.62 385.908C365.099 384.985 364.537 384.825 364.015 384.303L362.851 383.259C361.788 382.319 361.044 381.07 360.724 379.687C360.604 379.045 360.403 378.443 360.283 377.841C359.159 376.557 357.995 375.393 356.992 374.069C356.113 372.805 355.309 371.492 354.583 370.135C353.587 368.34 352.418 366.646 351.092 365.079C350.369 364.155 349.607 363.272 348.925 362.349C347.538 360.654 346.526 358.684 345.955 356.57L345.353 354.363C344.834 352.494 343.901 350.765 342.623 349.306C341.46 347.941 340.336 346.577 339.252 345.092C338.774 344.356 338.396 343.56 338.128 342.724C338.056 342.349 338.083 341.961 338.209 341.6C338.409 340.998 339.373 340.757 339.774 341.199C339.987 341.345 340.165 341.537 340.296 341.761C341.179 343.326 342.423 344.65 343.587 346.015C349.446 352.838 354.985 359.901 360.563 366.965L378.343 389.239C379.386 390.524 380.51 391.768 381.634 392.972C382.047 393.331 382.49 393.653 382.958 393.935C383.4 393.173 383.801 392.49 384.122 391.808C385.407 389.039 386.651 386.229 388.015 383.46C388.617 382.176 389.179 380.851 390.343 380.008C390.624 379.808 390.905 379.808 390.985 380.129C391.22 380.709 391.382 381.315 391.467 381.935C391.555 384.124 391.256 386.311 390.584 388.397C390.183 389.721 389.701 391.086 389.3 392.41C388.898 393.734 388.617 394.898 388.336 396.142C388.024 397.459 387.995 398.826 388.251 400.155C388.507 401.483 389.042 402.742 389.821 403.848C390.405 404.698 391.035 405.515 391.708 406.296C397.688 412.838 402.985 419.942 408.524 426.845C411.333 430.337 414.303 433.748 417.153 437.2C417.678 437.766 418.161 438.369 418.598 439.006C418.932 439.56 419.033 440.224 418.879 440.852C418.83 441.102 418.684 441.322 418.474 441.465C418.263 441.608 418.005 441.662 417.755 441.615C417.382 441.534 417.029 441.384 416.711 441.173C415.909 440.531 415.146 439.849 414.384 439.166C413.621 438.484 411.975 436.879 410.691 435.795C409.982 435.253 409.231 434.77 408.444 434.35C407.561 433.869 406.718 434.511 406.678 435.594C406.649 436.493 406.828 437.385 407.199 438.203C407.936 439.834 408.866 441.37 409.969 442.779C412.457 446.19 414.945 449.601 417.514 452.973L446.732 491.261C451.026 496.879 455.32 502.458 459.575 508.117C461.782 511.087 463.909 514.137 466.076 517.147C466.919 518.311 467.762 519.475 468.645 520.559C470.074 522.387 472.061 523.698 474.304 524.291C476.19 524.773 478.036 525.295 479.923 525.616L493.97 528.024C498.746 528.907 503.522 529.87 508.298 530.793C509.582 531.034 510.826 531.234 512.07 531.556C512.835 531.715 513.518 532.142 513.997 532.76C514.358 533.241 514.238 534.245 513.716 534.445C512.895 534.779 512.05 535.047 511.187 535.248C510.433 535.381 509.666 535.435 508.9 535.408C504.766 535.288 500.672 535.93 496.579 536.131L496.217 536.211C495.856 536.332 495.495 536.452 495.374 536.893C495.281 537.133 495.262 537.395 495.319 537.645C495.377 537.895 495.508 538.123 495.696 538.298C495.938 538.603 496.256 538.838 496.619 538.98C497.326 539.266 498.068 539.455 498.826 539.542C501.676 539.823 504.324 540.786 506.933 541.91C509.542 543.034 509.381 543.756 507.615 545.482C507.335 545.763 507.134 546.044 506.853 546.365C507.937 547.047 509.1 547.087 510.184 547.328C511.322 547.567 512.342 548.191 513.074 549.094C513.418 549.483 513.605 549.987 513.597 550.507C513.59 551.026 513.389 551.524 513.034 551.904C512.604 552.368 512.102 552.761 511.549 553.068C510.625 553.549 509.662 553.87 508.739 554.312C508.619 554.392 508.659 554.753 508.579 554.994C510.978 555.449 513.405 555.744 515.843 555.877L531.937 557.121L535.428 557.362L542.332 557.924C543.576 558.004 544.9 558.004 546.144 558.124C546.782 558.185 547.405 558.348 547.991 558.606C548.713 558.887 548.954 559.93 548.552 560.573C548.184 561.256 547.608 561.804 546.907 562.138C545.61 562.71 544.226 563.063 542.813 563.181C540.014 563.494 537.239 563.99 534.505 564.666C533.493 564.835 532.532 565.233 531.696 565.83C531.605 565.918 531.533 566.025 531.484 566.142C531.436 566.259 531.412 566.386 531.415 566.512C531.455 566.628 531.518 566.734 531.601 566.824C531.684 566.914 531.785 566.985 531.897 567.034C533.969 567.729 536.133 568.107 538.318 568.158C540.365 568.238 542.412 568.158 544.459 568.319C552.927 569.001 561.395 568.84 569.864 569.242C578.332 569.643 586.038 569.643 594.105 569.803C598.359 569.884 602.573 570.084 606.827 570.205L618.346 570.526L628.379 570.967L630.306 571.088C636.567 571.128 642.828 571.89 649.129 572.091L650.293 572.212C651.136 572.332 652.219 572.252 652.5 573.335C652.781 574.419 652.099 575.021 651.497 575.703C650.315 577.085 648.704 578.032 646.922 578.392C645.065 578.924 643.152 579.233 641.222 579.315C637.37 579.396 633.557 580.038 629.744 580.519L622.118 581.523L604.58 583.77C599.362 584.412 594.105 584.894 588.887 585.576C585.843 586.018 582.773 586.259 579.697 586.299C578.407 586.263 577.135 586.613 576.044 587.302C575.892 587.415 575.767 587.562 575.68 587.731C575.593 587.899 575.546 588.086 575.542 588.275C575.538 588.465 575.578 588.653 575.658 588.826C575.738 588.998 575.857 589.149 576.004 589.269C576.202 589.438 576.417 589.586 576.646 589.71C577.717 590.153 578.859 590.398 580.018 590.433L585.396 590.553C586.677 590.526 587.945 590.815 589.088 591.396C589.402 591.616 589.662 591.904 589.851 592.239C589.888 592.351 589.901 592.471 589.887 592.589C589.873 592.707 589.833 592.82 589.77 592.921C589.509 593.205 589.193 593.434 588.842 593.592C588.49 593.751 588.109 593.837 587.723 593.844C584.392 594.245 581.101 594.727 577.73 594.807C572.753 594.928 567.737 595.249 562.76 595.57C559.812 595.728 556.891 596.212 554.051 597.015C553.665 597.079 553.288 597.186 552.927 597.336C552.205 597.697 551.643 598.219 551.603 599.061C551.562 599.904 551.562 601.389 551.603 602.513C551.609 602.774 551.692 603.028 551.842 603.243C551.992 603.457 552.202 603.622 552.445 603.717C552.904 603.95 553.389 604.125 553.89 604.239C555.777 604.6 557.663 604.881 559.589 605.162L566.854 606.005C567.867 606.178 568.861 606.447 569.824 606.807C571.951 607.53 573.757 608.734 574.559 610.981C575.362 613.229 577.008 614.473 579.496 614.393C580.14 614.393 580.783 614.433 581.422 614.513C582.319 614.653 583.164 615.027 583.871 615.597C584.232 615.918 584.553 616.64 584.312 616.961C584.071 617.282 583.83 617.644 583.509 617.724C582.145 618.045 580.78 618.366 579.416 618.567C578.387 618.698 577.392 619.025 576.486 619.53C576.346 619.651 576.232 619.798 576.149 619.964C576.066 620.129 576.017 620.309 576.004 620.493C576.035 620.675 576.105 620.848 576.209 621C576.313 621.153 576.448 621.281 576.606 621.376C577.3 621.723 578.045 621.954 578.814 622.058C580.459 622.179 582.145 622.179 583.79 622.179L593.423 622.058C595.229 622.018 597.035 622.018 598.801 622.058C599.968 622.052 601.121 622.313 602.172 622.821C605.904 624.627 609.878 624.587 613.851 624.065C617.021 623.624 620.192 623.022 623.323 622.46C625.11 622.151 626.948 622.36 628.62 623.062C629.196 623.335 629.714 623.717 630.145 624.185C630.507 624.507 630.466 625.309 630.065 625.51C629.664 625.711 628.901 626.192 628.299 626.272C626.781 626.459 625.254 626.566 623.724 626.593C622.56 626.593 621.396 626.473 620.272 626.433C618.076 626.261 615.875 626.72 613.931 627.757C610.801 629.443 607.389 630.085 603.898 630.125C600.406 630.165 597.516 630.767 594.346 631.169C589.249 631.771 584.192 632.573 579.095 633.256C576.677 633.578 574.306 634.184 572.031 635.062C570.747 635.584 569.422 636.145 568.499 637.309C568.419 637.39 568.339 637.59 568.379 637.671C568.419 637.751 568.62 638.192 568.78 638.192C569.789 638.37 570.808 638.49 571.83 638.554C573.516 638.594 575.202 638.513 576.847 638.594C578.382 638.666 579.91 638.84 581.422 639.115C582.155 639.335 582.847 639.674 583.469 640.119C583.991 640.44 583.871 641.443 583.309 641.724L580.459 642.888L576.967 644.493C576.649 644.703 576.365 644.96 576.125 645.256C576.046 645.352 575.987 645.464 575.952 645.583C575.917 645.703 575.907 645.829 575.922 645.952C575.937 646.076 575.977 646.196 576.039 646.304C576.102 646.411 576.185 646.506 576.285 646.58C577.489 647.383 578.894 647.664 580.218 648.146L584.232 649.51C585.086 649.819 585.837 650.361 586.399 651.075C586.68 651.477 586.64 652.239 586.198 652.4C585.757 652.56 584.513 653.042 583.67 653.283C581.422 653.845 579.135 654.286 576.927 654.848C575.953 655.156 575.001 655.532 574.078 655.972C573.877 656.052 573.636 656.453 573.717 656.574C573.838 656.916 574.081 657.201 574.399 657.376C574.68 657.577 575.121 657.537 575.523 657.617L579.295 658.259C580.419 658.5 580.339 659.102 579.897 659.985L579.416 660.587C579.246 660.785 579.098 661 578.974 661.229C577.971 662.754 577.81 664.32 579.014 665.845C579.375 666.367 579.777 666.888 580.098 667.41C580.95 668.713 581.423 670.228 581.463 671.785C581.463 672.949 581.463 674.072 581.503 675.236C581.518 675.691 581.629 676.137 581.83 676.545C582.031 676.953 582.316 677.314 582.667 677.604C583.112 678.057 583.627 678.437 584.192 678.728C585.596 679.45 586.158 680.654 586.439 682.139C586.72 683.624 587.242 685.872 587.643 687.758C587.804 688.4 587.964 689.002 588.165 689.604C588.391 690.208 588.816 690.718 589.369 691.049C593.744 693.859 598.479 695.103 603.697 694.139C605.583 693.738 607.47 693.417 609.356 693.136C612.406 692.695 615.456 692.173 618.547 692.173C620.995 692.173 623.403 691.892 625.851 691.772L633.155 691.451L644.714 691.009L653.182 690.688L664.34 690.206L670.079 689.925L679.711 689.404L680.474 689.323L700.461 688.32L707.765 687.919L712.782 687.638L720.849 687.076L724.3 686.835L730.441 686.313L733.892 686.072L740.033 685.591C740.536 685.498 741.046 685.444 741.558 685.43C748.22 685.19 754.883 684.588 761.545 684.347C776.957 683.745 792.368 683.905 807.78 683.705C812.275 683.664 816.73 683.584 821.225 683.223C823.271 683.022 825.318 683.022 827.365 682.902C829.412 682.781 829.252 682.5 829.693 680.855C829.832 680.358 829.913 679.846 829.934 679.33C830.175 676.199 832.422 674.915 834.63 674.514C836.837 674.112 838.201 674.032 839.967 673.791C840.89 673.711 841.773 673.711 842.656 673.591C843.108 673.544 843.542 673.392 843.926 673.148C844.309 672.905 844.63 672.575 844.864 672.186C845.707 670.781 846.63 669.377 847.472 667.932C847.63 667.719 847.764 667.49 847.874 667.25C849.319 664.761 849.64 662.233 848.074 659.624C847.071 657.978 846.268 656.253 845.225 654.607C843.561 651.868 842.099 649.011 840.85 646.059C839.234 642.281 837.215 638.689 834.83 635.343C834.429 634.821 834.108 634.259 833.706 633.778C826.121 623.864 819.098 613.59 811.392 603.797C807.864 599.382 804.646 594.729 801.76 589.871C799.844 586.52 797.145 583.683 793.893 581.603C792.368 580.64 790.843 579.636 789.398 578.553C788.042 577.587 786.754 576.527 785.545 575.382C783.893 573.931 782.718 572.014 782.174 569.884C781.862 568.63 781.124 567.524 780.087 566.753C779.365 566.191 778.722 565.589 778.04 565.027C776.235 563.556 774.793 561.688 773.826 559.569C773.505 558.721 772.93 557.992 772.181 557.482L770.334 556.118C768.278 554.545 766.717 552.413 765.839 549.977C765.525 548.874 764.962 547.858 764.194 547.007C758.374 540.987 753.237 534.405 748.18 527.743C739.712 516.626 731.284 505.428 723.016 494.19C711.658 478.779 700.18 463.488 688.38 448.437C678.347 435.554 668.835 422.31 660.246 408.464C659.363 407.019 658.4 405.654 657.557 404.25C655.562 400.941 653.264 397.824 650.694 394.938C648.822 392.823 647.168 390.524 645.758 388.075C644.124 385.153 641.845 382.641 639.095 380.731L637.57 379.527C635.764 378.042 634.239 376.316 633.597 373.988C633.366 373.257 632.918 372.613 632.313 372.142C627.497 368.41 623.603 363.794 619.871 359.058L609.717 345.975C600.348 333.895 591.909 321.123 584.473 307.767C581.503 302.389 578.372 297.091 575.242 291.753C574.399 290.349 573.476 288.944 572.513 287.579C571.733 286.399 570.723 285.389 569.543 284.609C569.392 284.49 569.205 284.429 569.013 284.437C568.822 284.444 568.64 284.519 568.499 284.649C566.919 286.986 565.498 289.427 564.245 291.954C563.806 293.022 563.601 294.171 563.643 295.325C563.627 295.908 563.732 296.487 563.954 297.026C564.175 297.566 564.506 298.052 564.927 298.456C565.73 299.258 566.653 299.981 567.496 300.783C568.385 301.511 569.099 302.43 569.583 303.472C569.712 303.768 569.747 304.096 569.682 304.413C569.617 304.729 569.456 305.017 569.222 305.238C568.599 305.692 567.942 306.094 567.255 306.442C566.452 306.844 565.569 307.085 564.767 307.446C564.203 307.733 563.666 308.068 563.161 308.449C562.359 309.091 562.038 310.416 562.519 311.258C563.001 312.101 563.362 312.543 563.763 313.185C564.191 313.968 564.58 314.771 564.927 315.593C565.082 315.95 565.115 316.348 565.021 316.725C564.926 317.102 564.71 317.438 564.405 317.68C563.537 318.445 562.611 319.143 561.636 319.767C560.472 320.53 559.188 321.172 557.984 321.934C556.78 322.697 555.616 323.459 554.492 324.302C553.811 324.79 553.244 325.419 552.828 326.146C552.412 326.873 552.159 327.682 552.084 328.516C551.924 330.403 551.121 332.209 550.238 333.934C549.355 335.66 548.432 337.306 547.469 338.991C546.111 341.325 544.982 343.785 544.098 346.336C540.526 357.293 536.231 368.048 532.178 378.845C525.836 395.902 519.375 412.959 512.953 429.976C511.491 433.962 509.803 437.861 507.896 441.655C507.335 442.779 506.813 443.942 506.331 445.146C505.689 446.712 505.127 448.277 505.167 449.963C505.229 450.734 505.116 451.509 504.838 452.232C504.561 452.954 504.124 453.605 503.562 454.137C503.161 454.538 502.117 454.417 501.836 453.936C501.508 453.396 501.252 452.816 501.074 452.21C500.831 450.939 500.914 449.628 501.314 448.397C501.5 447.78 501.728 447.177 501.997 446.591C505.247 439.166 507.696 431.461 509.943 423.675C513.636 410.872 518.01 398.27 522.264 385.627C524.07 380.289 525.716 374.871 527.362 369.493C529.77 361.386 532.539 353.359 535.308 345.373C537.636 338.55 539.843 331.714 541.93 324.864C543.415 319.968 545.181 315.111 546.827 310.295C548.472 305.479 550.198 300.583 551.482 295.606C552.124 292.997 552.726 290.349 553.248 287.74C553.362 286.848 553.375 285.946 553.288 285.051C553.288 284.93 552.887 284.69 552.767 284.73C552.289 284.897 551.841 285.141 551.442 285.452C549.877 286.977 548.312 288.502 546.786 290.068C545.835 291.105 544.938 292.19 544.098 293.318C540.526 298.014 536.713 302.549 532.74 306.924C525.596 314.83 518.933 323.178 512.07 331.285C500.431 345.011 488.779 358.711 477.113 372.383C463.628 388.196 450.103 404.009 436.979 420.143C435.534 421.949 434.13 423.755 432.645 425.561C431.385 427.183 429.799 428.523 427.989 429.494C427.586 429.705 427.118 429.756 426.679 429.637C426.24 429.518 425.862 429.237 425.621 428.852C425.113 428.177 424.794 427.379 424.695 426.54C424.596 425.701 424.722 424.851 425.059 424.076C425.48 423.008 426.033 421.997 426.705 421.066C427.387 420.143 428.19 419.34 428.952 418.457C432.203 414.805 435.494 411.233 438.665 407.5C463.187 378.483 487.388 349.145 511.589 319.847L547.71 276.261C549.315 274.255 551.081 272.368 552.767 270.442C553.81 269.158 554.894 267.873 555.897 266.509C556.463 265.81 556.829 264.971 556.957 264.08C557.084 263.19 556.967 262.281 556.619 261.452C556.379 260.85 556.017 260.288 556.298 259.485C556.771 259.368 557.257 259.314 557.743 259.325C559.027 259.365 560.272 259.525 561.556 259.606C561.678 259.599 561.797 259.565 561.904 259.505C562.011 259.445 562.103 259.362 562.173 259.261C562.243 259.16 562.288 259.045 562.307 258.924C562.325 258.803 562.315 258.679 562.278 258.562C561.797 257.358 561.235 256.194 560.753 255.03C560.272 253.866 559.71 252.422 559.188 251.097C559.148 251.017 559.228 250.856 559.308 250.776C559.33 250.719 559.366 250.667 559.413 250.628C559.459 250.588 559.516 250.56 559.576 250.548C559.636 250.536 559.699 250.54 559.757 250.559C559.816 250.577 559.868 250.611 559.91 250.656L562.64 252.783C563.161 253.144 563.723 253.385 564.285 253.706C564.469 253.746 564.661 253.734 564.839 253.67C565.016 253.606 565.172 253.493 565.288 253.345C565.566 252.903 565.821 252.448 566.051 251.98C568.459 246.883 570.225 241.505 572.071 236.167C572.312 235.445 572.593 234.722 572.874 234H579.014ZM276.322 701.323C277.766 700.762 278.409 699.598 279.091 698.514C280.415 696.467 281.298 694.18 282.181 691.892C283.746 687.838 285.352 683.785 286.957 679.731C287.479 678.407 287.961 677.082 288.522 675.798C289.486 673.51 290.088 671.183 289.927 668.694C289.92 668.306 289.934 667.917 289.967 667.53C290.014 666.242 290.447 664.997 291.211 663.958C291.693 663.357 292.215 662.795 292.656 662.152C292.885 661.838 293.043 661.478 293.119 661.097C293.195 660.716 293.188 660.323 293.098 659.945C292.977 659.463 292.817 658.982 292.656 658.5C292.094 656.253 292.215 655.892 294.302 654.326L294.623 654.126C294.958 653.924 295.22 653.62 295.371 653.26C295.523 652.899 295.556 652.5 295.466 652.119C295.345 650.995 295.104 649.871 294.984 648.707C294.853 648.088 294.799 647.454 294.824 646.821C294.828 646.56 294.906 646.305 295.048 646.085C295.189 645.865 295.39 645.689 295.626 645.577L297.352 644.975C297.423 644.686 297.436 644.386 297.392 644.092C296.67 642.286 297.071 640.56 297.793 638.875C297.994 638.393 298.235 637.951 298.476 637.47C299.598 635.307 300.409 632.997 300.884 630.607C301.807 626.072 302.971 621.617 304.295 617.202C308.951 601.469 313.847 585.79 318.984 570.165C327.091 545.442 335.252 520.719 343.466 495.997C345.714 489.214 347.881 482.351 350.409 475.608C352.737 469.508 355.065 463.408 356.349 456.946C356.59 455.862 357.272 455.22 358.436 454.939C359.6 454.658 359.961 454.417 360.002 453.213C360.042 452.009 360.002 450.163 359.961 448.638C359.961 448.277 359.319 448.036 359.038 448.237C358.588 448.461 358.17 448.745 357.794 449.08C355.587 451.448 353.379 453.735 351.252 456.183C347.56 460.478 343.988 464.812 340.336 469.147C328.496 483.154 316.576 497.12 304.737 511.127C282.422 537.495 260.188 563.904 237.472 589.951C228.522 600.185 219.652 610.5 210.381 620.453C209.575 621.283 208.811 622.154 208.093 623.062C207.446 623.862 206.856 624.707 206.327 625.59C205.996 626.139 205.789 626.754 205.72 627.392C205.65 628.03 205.721 628.675 205.926 629.282C206.489 630.995 207.271 632.628 208.254 634.139C211.184 638.955 214.113 643.771 217.003 648.627C223.545 659.704 229.967 670.781 236.549 681.818C242.488 691.731 248.87 701.364 255.612 710.755C256.066 711.364 256.577 711.928 257.137 712.441C257.258 712.601 257.579 712.601 257.82 712.561C258.061 712.521 258.261 712.32 258.261 712.039C258.261 709.35 258.221 706.621 258.301 703.932C258.344 700.975 257.741 698.044 256.535 695.344C255.853 693.698 255.091 692.052 254.288 690.447C253.463 688.701 252.831 686.871 252.402 684.989C252.321 684.363 252.321 683.729 252.402 683.103C252.442 682.661 253.204 682.34 253.646 682.501C254.363 682.78 254.978 683.27 255.412 683.905C256.415 685.39 257.378 686.875 258.341 688.44C259.305 690.006 260.228 691.772 261.231 693.417C262.094 694.838 263.148 696.134 264.362 697.27C265.274 698.182 266.368 698.893 267.572 699.357C268.062 699.525 268.581 699.593 269.097 699.558C269.579 699.477 270.061 699.236 270.542 699.116C271.169 698.96 271.823 698.948 272.456 699.08C273.088 699.212 273.682 699.485 274.195 699.879C274.917 700.4 275.679 700.842 276.322 701.323Z" fill="#EEEEEE"/>
</svg>
